<svg xmlns="http://www.w3.org/2000/svg" width="235.031" height="47.969" viewBox="0 0 235.031 47.969"><path d="M291.643 58.508c.207.539.407 1.08.622 1.615a9.56 9.56 0 0 0 3.126 4.244 5.5 5.5 0 0 0 5.741.775 4.144 4.144 0 0 0 2.209-2.231 7.987 7.987 0 0 0 .593-3.862c0-.049-.007-.1-.009-.147a.042.042 0 1 0 0 .012c.649-.058 1.284-.088 1.909-.178a5.4 5.4 0 0 0 2.416-.95 4.262 4.262 0 0 0 1.748-3.225 5.287 5.287 0 0 0-1.234-3.875 7.1 7.1 0 0 0-3.326-2.327 20.28 20.28 0 0 0-5.088-.951l-.164-.013a.2.2 0 0 1-.032-.024l.208-.04a21.175 21.175 0 0 0 4.675-1.319 8.78 8.78 0 0 0 2.615-1.644 3.978 3.978 0 0 0 1.036-4.732 5.525 5.525 0 0 0-2.344-2.694 10.311 10.311 0 0 0-3.418-1.323c0-.084 0-.168.007-.254a7.448 7.448 0 0 0-.747-3.6 4.581 4.581 0 0 0-2.418-2.2 6.412 6.412 0 0 0-2.76-.565 5.121 5.121 0 0 0-3.113 1.26 6.54 6.54 0 0 0-1.9 2.59 24.248 24.248 0 0 0-1.254 4.075c-.265 1.2-.482 2.406-.721 3.609 0 .025-.015.049-.034.112-.1-.507-.187-.975-.282-1.442a46.172 46.172 0 0 0-1.193-4.829 8.007 8.007 0 0 0-1.982-3.389 5.459 5.459 0 0 0-5.035-1.5 3.571 3.571 0 0 0-2.448 1.78A7.866 7.866 0 0 0 278 34.659c-.006.054-.009.108-.011.138-.478-.022-.954-.081-1.426-.061a5.859 5.859 0 0 0-4.756 2.5 4.41 4.41 0 0 0-.471 4.372 6.713 6.713 0 0 0 2.523 3.072 14.606 14.606 0 0 0 2.671 1.445 36.513 36.513 0 0 0 6.79 2.089 1.463 1.463 0 0 1 .144.047c-.078.021-.122.036-.167.046a29.734 29.734 0 0 0-6.177 2.045 9.464 9.464 0 0 0-3.913 3.263 5.211 5.211 0 0 0-1.036 3.08 4.587 4.587 0 0 0 2.082 3.751 7.47 7.47 0 0 0 3.47 1.222c.4.051.807.068 1.215.1.018.244.023.5.055.753a4.824 4.824 0 0 0 1.321 2.889 4.593 4.593 0 0 0 2.081 1.167 4.555 4.555 0 0 0 5.038-1.493 7.041 7.041 0 0 0 1.457-2.744 34.641 34.641 0 0 0 .97-4.342.093.093 0 0 1 .034-.062c.015.3.026.593.046.89a24.2 24.2 0 0 0 1.509 7.225 15.613 15.613 0 0 0 2.447 4.176 29.123 29.123 0 0 0 6.489 5.891c.41.276.842.523 1.274.766a.4.4 0 0 0 .61-.132 2.392 2.392 0 0 0 .507-1.307 1.748 1.748 0 0 0-.814-1.8c-.8-.523-1.606-1.05-2.391-1.6a19.183 19.183 0 0 1-4.964-5.013 16.31 16.31 0 0 1-1.851-3.953 28.76 28.76 0 0 1-1.1-4.443c-.007-.042-.011-.085-.017-.128z" transform="translate(-270.969 -29)" style="fill-rule:evenodd;fill:#e16c19"/><path d="M302.212 48.891v-2.769h-10.581v3.942h4.52l-.017.345c-.171 2.268-2.157 3.8-5 3.8-3.613 0-5.942-2.707-5.942-7.182 0-4.4 2.106-6.945 5.668-6.945a4.772 4.772 0 0 1 4.879 3.223h6.215c-.633-4.6-5.119-7.838-11.112-7.838-7.465 0-12.053 4.317-12.053 11.639 0 7.415 4.588 11.719 12.208 11.719 7.037.001 11.215-3.77 11.215-9.934z" transform="translate(-270.969 -29)" style="fill:#e8e8e8;fill-rule:evenodd"/><text x="46.031" y="26" style="font-size:33px;fill:#424242;font-family:ProximaNova;font-weight:700">golden<tspan style="font-weight:300">studio</tspan></text></svg>