<svg width="30" height="57" viewBox="0 0 30 57" fill="none" xmlns="http://www.w3.org/2000/svg">
<path fill-rule="evenodd" clip-rule="evenodd" d="M0.439941 0.569946C0.299773 0.708603 0.188493 0.873715 0.112549 1.05566C0.0366044 1.23761 -0.00244141 1.43284 -0.00244141 1.63C-0.00244141 1.82717 0.0366044 2.0224 0.112549 2.20435C0.188493 2.38629 0.299773 2.55129 0.439941 2.68994L27.3101 29.5601C27.5944 29.825 27.9704 29.9693 28.359 29.9624C28.7476 29.9555 29.1184 29.798 29.3932 29.5232C29.668 29.2484 29.8255 28.8776 29.8324 28.489C29.8393 28.1004 29.695 27.7243 29.4301 27.4399L2.56006 0.569946C2.4214 0.429777 2.25629 0.318498 2.07434 0.242554C1.89239 0.166609 1.69716 0.127563 1.5 0.127563C1.30284 0.127563 1.10761 0.166609 0.925659 0.242554C0.74371 0.318498 0.578598 0.429777 0.439941 0.569946ZM0.439941 56.4301C0.578598 56.5702 0.74371 56.6815 0.925659 56.7574C1.10761 56.8334 1.30284 56.8724 1.5 56.8724C1.69716 56.8724 1.89239 56.8334 2.07434 56.7574C2.25629 56.6815 2.4214 56.5702 2.56006 56.4301L29.4301 29.5601C29.695 29.2757 29.8393 28.8996 29.8324 28.511C29.8255 28.1224 29.668 27.7516 29.3932 27.4768C29.1184 27.202 28.7476 27.0445 28.359 27.0376C27.9704 27.0307 27.5944 27.175 27.3101 27.4399L0.439941 54.3101C0.299773 54.4487 0.188493 54.6137 0.112549 54.7957C0.0366044 54.9776 -0.00244141 55.1728 -0.00244141 55.37C-0.00244141 55.5672 0.0366044 55.7624 0.112549 55.9443C0.188493 56.1263 0.299773 56.2914 0.439941 56.4301Z" fill="#E37F23"/>
</svg>
