<svg width="30" height="57" viewBox="0 0 30 57" fill="none" xmlns="http://www.w3.org/2000/svg">
<path fill-rule="evenodd" clip-rule="evenodd" d="M29.561 0.569946C29.8419 0.851197 29.9997 1.2325 29.9997 1.63C29.9997 2.02751 29.8419 2.40869 29.561 2.68994L2.69101 29.5601C2.40824 29.8334 2.02941 29.9848 1.63611 29.9816C1.24281 29.9783 0.866518 29.8207 0.588274 29.5427C0.31003 29.2647 0.152102 28.8887 0.1485 28.4954C0.144899 28.1021 0.295911 27.723 0.569017 27.4399L27.439 0.569946C27.5778 0.429717 27.7431 0.318403 27.9252 0.242432C28.1073 0.166461 28.3027 0.127441 28.5 0.127441C28.6973 0.127441 28.8927 0.166461 29.0748 0.242432C29.2569 0.318403 29.4222 0.429717 29.561 0.569946ZM29.561 56.4301C29.4222 56.5703 29.2569 56.6816 29.0748 56.7576C28.8927 56.8335 28.6973 56.8726 28.5 56.8726C28.3027 56.8726 28.1073 56.8335 27.9252 56.7576C27.7431 56.6816 27.5778 56.5703 27.439 56.4301L0.569017 29.5601C0.295911 29.277 0.144899 28.8979 0.1485 28.5046C0.152102 28.1113 0.31003 27.7353 0.588274 27.4573C0.866518 27.1793 1.24281 27.0217 1.63611 27.0184C2.02941 27.0152 2.40824 27.1666 2.69101 27.4399L29.561 54.3101C29.8419 54.5913 29.9997 54.9725 29.9997 55.37C29.9997 55.7675 29.8419 56.1488 29.561 56.4301Z" fill="#E37F23"/>
</svg>
